<?xml version="1.0" encoding="UTF-8"?>
<svg id="Layer_1" xmlns="http://www.w3.org/2000/svg" version="1.1" viewBox="0 0 2041.14 598.86">
  <!-- Generator: Adobe Illustrator 29.8.4, SVG Export Plug-In . SVG Version: 2.1.1 Build 6)  -->
  <defs>
    <style>
      .st0 {
        font-family: BookAntiqua, 'Book Antiqua';
        font-size: 66.9px;
      }

      .st0, .st1 {
        fill: #993a39;
      }
    </style>
  </defs>
  <g>
    <g>
      <path class="st1" d="M372.63,381.83c-2.05,0-3.71-1.66-3.71-3.71,0-4.93-8.27-12.43-31.46-18.69-21.75-5.86-50.74-9.09-81.62-9.09s-59.87,3.23-81.62,9.09c-23.2,6.26-31.46,13.76-31.46,18.69,0,2.05-1.66,3.71-3.71,3.71s-3.71-1.66-3.71-3.71v-160.59c0-32.19,12.53-62.45,35.29-85.21,22.76-22.76,53.02-35.3,85.21-35.3s62.44,12.53,85.2,35.3c22.76,22.76,35.3,53.02,35.3,85.21v160.59c0,2.05-1.66,3.71-3.71,3.71ZM255.84,342.92c31.51,0,61.19,3.32,83.55,9.35,13.45,3.63,23.38,8.01,29.53,12.97v-147.7c0-30.21-11.76-58.6-33.12-79.96-21.36-21.36-49.76-33.12-79.96-33.12-62.35,0-113.08,50.73-113.08,113.09v147.7c6.16-4.96,16.08-9.34,29.53-12.97,22.36-6.03,52.04-9.35,83.55-9.35Z"/>
      <path class="st1" d="M255.84,413.32c-31.51,0-61.18-3.32-83.55-9.35-24.17-6.52-36.95-15.45-36.95-25.84s12.78-19.33,36.95-25.85c22.36-6.03,52.04-9.35,83.55-9.35s61.19,3.32,83.55,9.35c24.17,6.52,36.95,15.46,36.95,25.85s-12.78,19.33-36.95,25.84c-22.36,6.03-52.04,9.35-83.55,9.35ZM255.84,350.34c-30.88,0-59.87,3.23-81.62,9.09-23.2,6.26-31.46,13.76-31.46,18.69s8.27,12.43,31.46,18.68c21.75,5.86,50.74,9.09,81.62,9.09s59.87-3.23,81.62-9.09c23.2-6.25,31.46-13.75,31.46-18.68s-8.27-12.43-31.46-18.69c-21.75-5.86-50.74-9.09-81.62-9.09Z"/>
      <g>
        <path class="st1" d="M311.32,378.12c0,8.26-24.84,14.96-55.48,14.96s-55.48-6.7-55.48-14.96,24.84-14.96,55.48-14.96,55.48,6.7,55.48,14.96Z"/>
        <path class="st1" d="M255.84,396.79c-15.14,0-29.41-1.6-40.2-4.51-12.6-3.4-18.99-8.16-18.99-14.16s6.39-10.76,18.99-14.16c10.78-2.91,25.06-4.51,40.2-4.51s29.41,1.6,40.2,4.51c12.6,3.4,18.99,8.16,18.99,14.16s-6.39,10.76-18.99,14.16c-10.78,2.91-25.06,4.51-40.2,4.51ZM255.84,366.87c-14.5,0-28.09,1.51-38.27,4.25-11.21,3.02-13.51,6.29-13.51,7s2.29,3.97,13.51,7c10.17,2.74,23.76,4.25,38.27,4.25s28.09-1.51,38.27-4.25c11.21-3.02,13.51-6.29,13.51-7s-2.29-3.97-13.51-7c-10.17-2.74-23.76-4.25-38.27-4.25Z"/>
      </g>
    </g>
    <g>
      <path class="st1" d="M317,320.48c-22.9-.88-47.19-2.65-72.18-5.27-10.58-1.11-21.08-2.61-31.18-4.46-5.31-.97-10.63-2.06-15.8-3.24-1.38-.31-2.79-.6-4.28-.9-3.47-.7-7.05-1.42-10.43-2.57-.85-.29-2.1-.79-3.2-1.84-2.17-2.06-2.18-4.71-2.19-6.3,0-.2,0-.4,0-.59-.06-1.4-.19-2.81-.33-4.29-.17-1.78-.34-3.62-.38-5.51-.15-7.03-.07-14.15.25-21.18.22-4.98.56-10.03,1.01-15,.03-.38.07-.76.1-1.15.33-3.95.73-8.86,3.96-12.52,1.92-2.18,4.3-3.61,6.58-4.83,13.03-6.98,27.32-9.86,39.59-11.76,11.2-1.74,20.3-2.49,28.64-2.37,3.46.05,7.14.29,10.63,1.65,3.23,1.27,5.4,3.49,7.31,5.45.58.6,1.13,1.16,1.7,1.68,2.05,1.9,3.89,3.96,5.67,5.94,1.03,1.16,2.01,2.25,3.02,3.31,3.79,3.97,7.75,7.94,11.59,11.77,3.58,3.58,7.29,7.29,10.87,11.02,4.81,5.01,9.71,10.13,14.55,15.23.25.26.49.51.71.74,1.83,1.87,3.9,4,3.92,8.3.01,3.3-.09,6.55-.24,10.43-.18,4.47-.46,8.99-.85,13.45-.08.88-.2,1.74-.31,2.58-.18,1.31-.35,2.54-.33,3.59,0,.11.04.36.06.57.17,1.33.58,4.44-2.29,6.59-.18.14-.38.27-.59.39-1.58.94-3.26,1.1-4.54,1.1-.36,0-.7-.01-.98-.02ZM229.72,227.07c-11.59,1.8-25.05,4.5-37.01,10.9-1.61.86-3.25,1.83-4.33,3.05-1.46,1.65-1.73,4.94-1.97,7.84-.03.41-.07.82-.1,1.22-.44,4.85-.77,9.77-.99,14.62-.3,6.85-.38,13.8-.24,20.65.03,1.6.19,3.21.35,4.92.15,1.53.3,3.12.36,4.74.01.28.01.57.02.86,0,.17,0,.37,0,.56,2.86.97,6.14,1.63,9.32,2.26,1.48.3,3.01.6,4.49.94,5.06,1.15,10.26,2.22,15.47,3.17,9.9,1.81,20.19,3.28,30.57,4.37,24.81,2.59,48.9,4.35,71.61,5.23,0-.12-.01-.24-.02-.36-.04-1.7.19-3.32.4-4.88.11-.77.21-1.5.27-2.17.38-4.33.65-8.73.83-13.07.15-3.77.25-6.93.24-10.08,0-.94,0-1.02-1.62-2.67-.25-.26-.51-.53-.79-.82-4.83-5.09-9.71-10.2-14.51-15.2-3.53-3.67-7.2-7.35-10.76-10.91-3.86-3.87-7.86-7.87-11.72-11.9-1.11-1.16-2.17-2.35-3.2-3.5-1.73-1.93-3.36-3.76-5.13-5.4-.71-.66-1.36-1.32-1.99-1.97-1.54-1.58-2.86-2.94-4.47-3.57-2.15-.84-4.67-1.05-7.79-1.09-.54,0-1.08-.01-1.62-.01-7.44,0-15.66.73-25.66,2.28Z"/>
      <path class="st1" d="M318.41,285.25c.91,0,1.81-.01,2.72-.04l-.23-8.09c-12.5.35-24.94-2.05-34.38-4.18l-4.12-.93c-20.86-4.69-42.43-9.54-62.65-16.93-9.96-3.64-21.43-8.48-30.91-16.74l-5.32,6.1c10.54,9.18,23.41,14.57,33.45,18.24,20.71,7.57,42.54,12.48,63.65,17.23l4.12.93c9.23,2.08,21.23,4.41,33.66,4.41Z"/>
      <path class="st1" d="M299.46,274.06c-.08.03-.17.05-.25.08-2.52.8-5.25,1.77-6.59,4.07-1.39,2.39-1.29,5.71-1.64,8.39-.43,3.33-.87,6.66-1.3,10-.15,1.12-.29,2.25-.7,3.3-.19.48-.51,1-1.02,1.05-.86.08-1.17-1.12-1.16-2,0-3.08-.17-6.16-.51-9.23-.11-1-.25-2.02-.59-2.97-.34-.93-.86-1.77-1.21-2.69-.8-2.11-.59-4.41-.24-6.59.36-2.2,1.57-2.98,3.51-3.94,2.71-1.33,5.57-2.39,8.32-3.62,1.67-.74,5.23-1.63,5.95-3.62-1.6-.87-3.5-.86-5.32-.83-2.06.03-4.12.06-6.17.09-2.89.04-5.79.09-8.68.34-2.91.25-5.8.71-8.7,1.03-1.69.19-3.44.34-4.94,1.16-3.73,2.03-5.78,6.23-6.58,10.25-.49,2.48-.76,5.01-1.57,7.4-.13.37-.3.77-.66.92-.23.09-.49.06-.71-.04-.76-.34-1.01-1.31-1.1-2.15-.21-1.97-.04-3.97-.18-5.94-.32-4.44-4.34-7.22-4.53-11.52-.1-2.4.84-4.75,2.22-6.69,1.38-1.94,3.19-3.53,5.03-5.05,3.4-2.8,6.92-5.53,10.89-7.42,1.24-.59,2.54-1.05,3.69-1.8.29-.19.61-.46.59-.82-.03-.55-.78-.69-1.32-.62-6.53.86-12.93,2.43-19.28,4.15-3.24.88-6.47,1.8-9.71,2.7-4.18,1.16-8.17,1.81-12.03,4-2.32,1.31-6.4,2.66-7.73,5.15-1.6,3.01-1.38,8.46-1.29,11.79.04,1.35.15,2.89-.52,4.12-.58,1.07-1.91,1.5-2.47,2.53-.64,1.19-.33,3.17-.38,4.48-.07,1.84-.15,3.68-.22,5.52-.05,1.13-.31,2.55-1.42,2.82-.71.17-1.45-.29-1.83-.91-.38-.62-.49-1.36-.58-2.09-1.18-9.34-1.25-18.83-.07-28.18.8-6.36,4.04-8.66,9.61-11,6.77-2.84,13.84-4.85,20.93-6.73,9.06-2.4,18.2-4.61,27.51-5.59,3.12-.33,6.27-.52,9.41-.41,1.65.06,3.32.2,4.85.84,1.52.64,2.89,1.84,3.39,3.43,1,3.21-1.95,5.19-4.41,6.2-1.89.77-3.68,1.89-5.59,2.69-4.01,1.68-7.79,3.87-11.55,6.04-2.21,1.28-4.47,2.59-6.17,4.51-.23.26-.46.56-.49.91-.05.6.55,1.1,1.15,1.16,1.16.11,2.93-.75,4.05-1.05,1.54-.41,3.08-.86,4.6-1.35,2.21-.71,3.83-1.64,6.2-1.76,3.96-.2,7.91-.53,11.88-.59,6.27-.09,12.7.54,18.37,3.26,3.11,1.49,5.14,5.06,2.11,7.9-1.33,1.25-3.12,1.83-4.84,2.38l-7.97,2.53Z"/>
      <path class="st1" d="M238.88,229.42c-7.26,1.17-14.47,2.73-21.5,4.54-4.37,1.12-8.67,2.58-12.68,4.67-3.33,1.73-7.09,3.48-9.13,6.78-2.2,3.56-1.17,9.46-1.26,13.5-.11,4.81-.21,9.63-.32,14.44-.05,2.34-.1,4.7.33,7.01.06.3.13.62.35.83.36.34.98.25,1.35-.07s.56-.81.7-1.28c1.28-4.13.72-8.59,1.38-12.86.1-.65.24-1.31.54-1.9.26-.52.65-.97.92-1.49.7-1.33.56-2.92.55-4.43-.01-1.82.18-3.64.58-5.41.73-3.24,3.64-4.61,6.31-6.27,8.45-5.25,18.32-6.19,27.84-8.19,2.82-.59,5.65-1.15,8.47-1.73,6.06-1.25,12.14-2.51,18.33-2.95,6.12-.43,11.84.21,17.81-1.71.73-.23,1.48-.51,2.04-1.03.73-.68,1.05-1.77.81-2.74-.24-.97-1.04-1.78-2.01-2.03-3-.79-6.97.01-10.07-.04-3.87-.06-7.75,0-11.62.21-6.55.34-13.15,1.09-19.71,2.16Z"/>
      <g>
        <path class="st1" d="M286.22,207.29c-1.95-2.81-5.51-4.09-8.92-4.36-1.05-.08-2.13-.09-3.14-.42-1.22-.4-2.23-1.24-3.33-1.89-3.27-1.95-7.49-2.21-10.98-.69-2.22.96-3.88,2.51-5.06,4.38-2.05,3.24-2.68,7.46-2.3,11.34.69,7,5.83,13.83,12.58,16.02,8.23,2.67,14.91-2.18,19.15-8.91,1.47-2.34,2.79-4.82,3.34-7.53.55-2.71.24-5.68-1.34-7.94ZM260.27,204.25c-.11.04-.21.08-.32.12-1.65.64-3.12,1.73-4.21,3.13.12-1.63,1.01-3.11,2.14-4.29.56-.58,1.24-1.14,2.02-1.38.49-.15,2.04-.31,2.15.42.03.2-.04.39-.12.57-.19.41-.47.78-.83,1.03-.25.17-.54.29-.82.4Z"/>
        <path class="st1" d="M281,189.58c-2.4,2.71-4.53,5.64-5.67,9.05-.83,2.49-1.08,5.12-1.38,7.72-.21,1.79-1.86,2.34-2.55.48-.52-1.42.08-3.04.62-4.36.97-2.37,1.95-4.75,3.2-6.99,3.24-5.79,8.2-10.39,13.14-14.82,3.13-2.81,6.42-5.31,10.72-5.79.53-.06,1.11,0,1.5.36.31.29.44.96.07,1.27-.31.25-.82.02-1.2.02-1.23-.02-2.6.22-3.76.61-1.04.35-2.01.89-2.93,1.49-3.29,2.14-6.07,4.97-8.79,7.79-1,1.04-2,2.09-2.96,3.18Z"/>
      </g>
      <g>
        <path class="st1" d="M245.53,208.17c-3.41-.32-6.68,1.57-9.09,4-.74.75-1.44,1.57-2.34,2.12-1.09.67-2.38.9-3.59,1.32-3.6,1.24-6.53,4.29-7.62,7.93-.7,2.32-.59,4.58.07,6.7,1.15,3.66,3.97,6.87,7.17,9.08,5.78,3.99,14.33,4.48,20.36.74,7.35-4.56,7.97-12.79,5.57-20.37-.83-2.63-1.88-5.25-3.59-7.41-1.71-2.16-4.18-3.85-6.93-4.11ZM243.4,214.53c-.41-.18-.75-.49-1.02-.85-.12-.16-.22-.34-.23-.54-.03-.73,1.52-.87,2.03-.82.82.09,1.58.5,2.25.97,1.34.93,2.49,2.22,2.92,3.8-1.33-1.16-2.99-1.96-4.73-2.26-.11-.02-.22-.04-.34-.06-.3-.05-.6-.11-.88-.23Z"/>
        <path class="st1" d="M228.64,200.71c.52,3.58,1.38,7.1,3.25,10.17,1.36,2.24,3.21,4.13,5,6.04,1.23,1.32.58,2.94-1.28,2.26-1.42-.52-2.27-2.03-2.93-3.29-1.18-2.28-2.37-4.56-3.27-6.96-2.32-6.21-2.64-12.97-2.83-19.6-.12-4.2.09-8.33,2.51-11.92.3-.44.71-.85,1.24-.91.42-.05,1.02.29,1.01.77,0,.4-.51.64-.76.93-.81.93-1.51,2.13-1.96,3.27-.41,1.02-.62,2.11-.75,3.2-.49,3.89-.13,7.84.27,11.75.15,1.43.3,2.88.51,4.31Z"/>
      </g>
      <path class="st1" d="M321.8,305.32c0-.42,0-.87-.27-1.19-.33-.41-.92-.46-1.45-.48-14.72-.56-29.45-1.13-44.17-1.69-6.25-.24-12.54-.48-18.67-1.79-4.17-.89-8.23-2.26-12.41-3.15-8.35-1.78-17.04-1.61-25.31-3.73-7.01-1.8-13.55-5.21-20.64-6.66-5.82-1.19-12.26-1.16-16.98-4.76-.26,5.14-.06,10.31.6,15.41.14,1.1.34,2.27,1.1,3.07.6.63,1.46.93,2.29,1.2,9.34,3,19.11,4.49,28.86,5.6,10.68,1.22,21.41,1.99,32.13,2.77,23.29,1.69,46.6,3.38,69.95,3.94,1.01.02,2.06.04,2.97-.41,2.45-1.22,1.97-5.93,1.99-8.12Z"/>
      <path class="st1" d="M255.67,281.54c.01-.31.02-.64-.11-.93-.13-.29-.45-.52-.75-.44-.32.08-.48.43-.59.75-.56,1.62-.97,3.28-1.23,4.98-.07.49-.13,1-.03,1.48.39,1.78,2,1.32,2.39-.03.5-1.72.25-4.02.32-5.81Z"/>
      <path class="st1" d="M225.75,285.27c.16-1.21.07-2.45-.26-3.62-.11-.39-.27-.8-.61-1.02-.55-.35-1.33-.01-1.67.55-.34.56-.35,1.25-.35,1.9,0,.68.02,1.38.29,2s.85,1.16,1.53,1.17c.41,0,.82-.2,1.04-.54"/>
      <path class="st1" d="M283.6,294.26c-.29-.87-.97-6.38,1-4.54.97.9.41,3.35.08,4.36-.12.36-.43.78-.77.62-.17-.08-.25-.27-.31-.44Z"/>
      <path class="st1" d="M173.73,190.49c6.83,1.48,8.95,3.6,10.43,10.43.2.93,1.52.93,1.72,0,1.48-6.83,3.6-8.95,10.43-10.43.93-.2.93-1.52,0-1.72-6.83-1.48-8.95-3.6-10.43-10.43-.2-.93-1.52-.93-1.72,0-1.48,6.83-3.6,8.95-10.43,10.43-.93.2-.93,1.52,0,1.72Z"/>
      <path class="st1" d="M204.08,169.82c6.83,1.48,8.95,3.6,10.43,10.43.2.93,1.52.93,1.72,0,1.48-6.83,3.6-8.95,10.43-10.43.93-.2.93-1.52,0-1.72-6.83-1.48-8.95-3.6-10.43-10.43-.2-.93-1.52-.93-1.72,0-1.48,6.83-3.6,8.95-10.43,10.43-.93.2-.93,1.52,0,1.72Z"/>
      <path class="st1" d="M333.22,190.49c-6.83,1.48-8.95,3.6-10.43,10.43-.2.93-1.52.93-1.72,0-1.48-6.83-3.6-8.95-10.43-10.43-.93-.2-.93-1.52,0-1.72,6.83-1.48,8.95-3.6,10.43-10.43.2-.93,1.52-.93,1.72,0,1.48,6.83,3.6,8.95,10.43,10.43.93.2.93,1.52,0,1.72Z"/>
      <path class="st1" d="M302.86,169.82c-6.83,1.48-8.95,3.6-10.43,10.43-.2.93-1.52.93-1.72,0-1.48-6.83-3.6-8.95-10.43-10.43-.93-.2-.93-1.52,0-1.72,6.83-1.48,8.95-3.6,10.43-10.43.2-.93,1.52-.93,1.72,0,1.48,6.83,3.6,8.95,10.43,10.43.93.2.93,1.52,0,1.72Z"/>
      <path class="st1" d="M265.41,153.03c-6.83,1.48-8.95,3.6-10.43,10.43-.2.93-1.52.93-1.72,0-1.48-6.83-3.6-8.95-10.43-10.43-.93-.2-.93-1.52,0-1.72,6.83-1.48,8.95-3.6,10.43-10.43.2-.93,1.52-.93,1.72,0,1.48,6.83,3.6,8.95,10.43,10.43.93.2.93,1.52,0,1.72Z"/>
    </g>
  </g>
  <g>
    <path class="st1" d="M599.69,156.47c77.83,0,126.39,44.57,126.39,116.41s-48.89,116.41-126.39,116.41h-101.44v-3.33c11.64-2,14.97-8.65,14.97-26.28v-81.82c23.28-7.98,33.93-20.95,33.93-41.91s-13.3-36.59-33.93-41.91v-2.99c0-14.97-10.31-26.28-27.94-26.28-14.63,0-32.26,12.31-32.26,35.26,0,13.3,8.65,22.62,21.62,22.62,10.64,0,21.62-4.66,34.59-18.96,15.3,1.33,27.94,16.3,27.94,32.93,0,19.29-15.97,32.6-39.25,32.6-31.93,0-54.88-27.94-54.88-61.2,0-34.92,20.62-51.55,56.88-51.55h99.78ZM600.02,380.98c40.91,0,64.53-39.58,64.53-108.1s-23.28-108.1-64.53-108.1h-28.6v216.19h28.6Z"/>
    <path class="st1" d="M814.6,337.41c7.32,23.61,22.95,36.92,44.24,36.92,18.96,0,40.25-15.3,50.56-36.92l5.32,3.99c-19.29,35.26-42.57,51.22-74.5,51.22-55.21,0-90.47-33.59-90.47-86.48s37.92-86.48,91.13-86.48c43.24,0,67.19,20.95,67.19,54.55,0,35.59-31.6,58.21-93.46,63.2ZM860.84,269.89c0-26.28-4.66-41.91-19.62-41.91-18.96,0-31.6,30.6-31.6,73.51,0,9.98,1,19.29,2.66,27.61,31.26-3.99,48.56-26.94,48.56-59.2Z"/>
    <path class="st1" d="M1004.12,342.67c0,17.96,3.66,24.28,14.97,26.28v3.33c-11.64,0-26.61-2.66-42.91-2.66s-30.93,2.66-42.57,2.66v-3.33c11.64-2,14.97-8.65,14.97-26.28v-166.97c0-17.63-3.33-24.28-14.97-26.28v-3.33c21.95,0,59.2-16.63,67.19-26.61h3.33v223.18Z"/>
    <path class="st1" d="M1109.22,325.65c0,17.96,3.66,24.28,14.97,26.28v3.33c-11.64,0-26.61-2.66-42.91-2.66s-30.93,2.66-42.57,2.66v-3.33c11.64-2,14.97-8.65,14.97-26.28v-90.47c0-17.63-3.33-24.28-14.97-26.28v-3.33c23.95,0,59.87-10.64,67.19-19.96h3.33v140.03ZM1081.28,102.47c19.29,0,31.93,12.64,31.93,31.93s-12.64,32.26-31.93,32.26-32.26-12.97-32.26-32.26,12.97-31.93,32.26-31.93Z"/>
    <path class="st1" d="M1051.44,503.38l-2.33.66c-20.62-5.32-35.59-29.27-35.59-51.55,0-32.93,24.28-55.88,59.2-55.88,59.54,0,129.05,38.25,184.93,38.25,24.61,0,37.92-11.97,37.92-33.93,0-17.96-14.63-38.25-28.6-40.91-10.98,3.99-23.61,6.32-37.58,6.32-49.89,0-84.15-29.6-84.15-72.84s33.59-73.84,84.15-73.84c3.66,0,9.98,0,13.64.33-8.65-7.32-13.3-19.96-13.3-30.27,0-28.6,20.62-50.22,47.89-50.22,23.28,0,39.25,13.64,39.25,33.26,0,13.3-12.31,24.28-26.94,24.28-2.33,0-4.66-.33-6.98-1-5.65-11.97-17.3-19.29-26.94-19.29-8.98,0-15.63,6.32-15.63,15.3s6.32,20.95,16.3,30.93c34.92,8.65,57.21,34.92,57.21,70.51,0,27.61-13.64,49.23-36.25,61.53,23.61,9.98,41.58,36.92,41.58,63.86,0,43.24-27.94,73.51-67.85,73.51-63.53,0-122.73-38.25-166.3-38.25-26.61,0-40.25,19.96-33.59,49.23ZM1229.72,226.65c-17.96,0-26.94,21.95-26.94,66.19s8.98,65.19,26.94,65.19c18.96,0,26.61-18.96,26.61-65.19s-8.98-66.19-26.61-66.19Z"/>
    <path class="st1" d="M1344.56,159.8v-3.33c23.95,0,59.87-10.64,67.19-19.96h3.33v111.42c10.31-17.3,33.26-29.6,55.88-29.6,39.25,0,61.2,25.28,61.2,70.51v70.84c0,17.96,3.66,24.28,14.97,26.28v3.33c-11.64,0-26.61-2.66-42.91-2.66s-30.93,2.66-42.57,2.66v-3.33c11.64-2,14.97-8.65,14.97-26.28v-70.84c0-34.59-8.32-52.22-24.61-52.22-13.64,0-28.27,9.31-36.92,27.61v95.46c0,17.96,3.66,24.28,14.97,26.28v3.33c-11.64,0-26.61-2.66-42.91-2.66s-30.93,2.66-42.57,2.66v-3.33c11.64-2,14.97-8.65,14.97-26.28v-173.62c0-17.63-3.33-24.28-14.97-26.28Z"/>
    <path class="st1" d="M1543.79,223c32.93,0,56.21-24.61,63.86-66.52h8.31v66.52h39.58v8.32h-39.58v112.09c0,28.27,5.65,40.91,18.29,40.91,19.62,0,19.62-28.27,7.98-47.23,2.99-10.64,17.63-18.96,30.93-18.96,17.3,0,28.94,10.98,28.94,28.94,0,26.94-24.95,45.57-60.87,45.57-54.21,0-80.82-24.61-80.82-74.84v-86.48h-16.63v-8.32Z"/>
    <path class="st1" d="M1797.23,393.96c-50.89,0-85.15-18.96-85.15-46.9,0-15.63,11.64-25.94,28.94-25.94,15.97,0,28.27,8.98,31.27,19.96-17.3,19.96-6.32,43.24,20.29,43.24,17.63,0,29.93-10.31,29.93-25.28,0-42.57-103.44-38.91-103.44-93.46,0-29.27,29.93-45.9,78.16-45.9,45.23,0,78.16,20.29,78.16,45.23,0,12.31-9.98,19.29-26.94,19.29-12.31,0-24.95-6.32-26.61-13.3,11.97-21.29,0-42.91-20.62-42.91-13.3,0-22.28,9.31-22.28,23.28,0,39.25,103.44,34.26,103.44,94.79,0,29.27-33.26,47.89-85.15,47.89Z"/>
  </g>
  <text class="st0" transform="translate(1357.07 479.63)"><tspan x="0" y="0">BY VM</tspan></text>
</svg>